<mxfile host="app.diagrams.net" agent="Mozilla/5.0 (Windows NT 10.0; Win64; x64) AppleWebKit/537.36 (KHTML, like Gecko) Chrome/130.0.0.0 Safari/537.36" version="24.8.4">
  <diagram id="prtHgNgQTEPvFCAcTncT" name="Page-1">
    <mxGraphModel dx="1434" dy="746" grid="1" gridSize="10" guides="1" tooltips="1" connect="1" arrows="1" fold="1" page="1" pageScale="1" pageWidth="827" pageHeight="1169" math="0" shadow="0">
      <root>
        <mxCell id="0" />
        <mxCell id="1" parent="0" />
        <mxCell id="dNxyNK7c78bLwvsdeMH5-11" value="Main Menu" style="swimlane;html=1;startSize=20;horizontal=1;containerType=tree;glass=0;" parent="1" vertex="1">
          <mxGeometry x="105" y="60" width="600" height="290" as="geometry" />
        </mxCell>
        <mxCell id="NBueSBJ00ZiVmKcQPDRC-91" style="edgeStyle=orthogonalEdgeStyle;rounded=0;orthogonalLoop=1;jettySize=auto;html=1;entryX=0.5;entryY=0;entryDx=0;entryDy=0;" edge="1" parent="dNxyNK7c78bLwvsdeMH5-11" source="NBueSBJ00ZiVmKcQPDRC-43" target="NBueSBJ00ZiVmKcQPDRC-90">
          <mxGeometry relative="1" as="geometry" />
        </mxCell>
        <mxCell id="NBueSBJ00ZiVmKcQPDRC-43" value="main menu" style="rounded=1;whiteSpace=wrap;html=1;" vertex="1" parent="dNxyNK7c78bLwvsdeMH5-11">
          <mxGeometry x="240" y="115" width="120" height="60" as="geometry" />
        </mxCell>
        <mxCell id="NBueSBJ00ZiVmKcQPDRC-90" value="quit" style="rounded=1;whiteSpace=wrap;html=1;" vertex="1" parent="dNxyNK7c78bLwvsdeMH5-11">
          <mxGeometry x="240" y="210" width="120" height="60" as="geometry" />
        </mxCell>
        <mxCell id="NBueSBJ00ZiVmKcQPDRC-1" value="&lt;span style=&quot;white-space: pre;&quot;&gt;&#x9;&lt;/span&gt;One Player" style="swimlane;html=1;startSize=20;horizontal=1;containerType=tree;glass=0;" vertex="1" parent="1">
          <mxGeometry x="50" y="400" width="710" height="360" as="geometry" />
        </mxCell>
        <mxCell id="NBueSBJ00ZiVmKcQPDRC-31" style="edgeStyle=orthogonalEdgeStyle;rounded=0;orthogonalLoop=1;jettySize=auto;html=1;exitX=0.5;exitY=1;exitDx=0;exitDy=0;entryX=0.5;entryY=0;entryDx=0;entryDy=0;" edge="1" parent="NBueSBJ00ZiVmKcQPDRC-1" source="NBueSBJ00ZiVmKcQPDRC-18" target="NBueSBJ00ZiVmKcQPDRC-19">
          <mxGeometry relative="1" as="geometry" />
        </mxCell>
        <mxCell id="NBueSBJ00ZiVmKcQPDRC-18" value="draw" style="rounded=1;whiteSpace=wrap;html=1;" vertex="1" parent="NBueSBJ00ZiVmKcQPDRC-1">
          <mxGeometry x="40" y="60" width="120" height="60" as="geometry" />
        </mxCell>
        <mxCell id="NBueSBJ00ZiVmKcQPDRC-32" style="edgeStyle=orthogonalEdgeStyle;rounded=0;orthogonalLoop=1;jettySize=auto;html=1;" edge="1" parent="NBueSBJ00ZiVmKcQPDRC-1" source="NBueSBJ00ZiVmKcQPDRC-19" target="NBueSBJ00ZiVmKcQPDRC-20">
          <mxGeometry relative="1" as="geometry" />
        </mxCell>
        <mxCell id="NBueSBJ00ZiVmKcQPDRC-19" value="check neighbours" style="rounded=1;whiteSpace=wrap;html=1;" vertex="1" parent="NBueSBJ00ZiVmKcQPDRC-1">
          <mxGeometry x="40" y="140" width="120" height="60" as="geometry" />
        </mxCell>
        <mxCell id="NBueSBJ00ZiVmKcQPDRC-33" style="edgeStyle=orthogonalEdgeStyle;rounded=0;orthogonalLoop=1;jettySize=auto;html=1;entryX=0.5;entryY=0;entryDx=0;entryDy=0;" edge="1" parent="NBueSBJ00ZiVmKcQPDRC-1" source="NBueSBJ00ZiVmKcQPDRC-20" target="NBueSBJ00ZiVmKcQPDRC-21">
          <mxGeometry relative="1" as="geometry" />
        </mxCell>
        <mxCell id="NBueSBJ00ZiVmKcQPDRC-20" value="remove walls" style="rounded=1;whiteSpace=wrap;html=1;" vertex="1" parent="NBueSBJ00ZiVmKcQPDRC-1">
          <mxGeometry x="40" y="220" width="120" height="60" as="geometry" />
        </mxCell>
        <mxCell id="NBueSBJ00ZiVmKcQPDRC-25" style="edgeStyle=orthogonalEdgeStyle;rounded=0;orthogonalLoop=1;jettySize=auto;html=1;" edge="1" parent="NBueSBJ00ZiVmKcQPDRC-1" source="NBueSBJ00ZiVmKcQPDRC-21" target="NBueSBJ00ZiVmKcQPDRC-24">
          <mxGeometry relative="1" as="geometry" />
        </mxCell>
        <mxCell id="NBueSBJ00ZiVmKcQPDRC-21" value="run loop" style="rounded=1;whiteSpace=wrap;html=1;" vertex="1" parent="NBueSBJ00ZiVmKcQPDRC-1">
          <mxGeometry x="200" y="280" width="120" height="60" as="geometry" />
        </mxCell>
        <mxCell id="NBueSBJ00ZiVmKcQPDRC-34" style="edgeStyle=orthogonalEdgeStyle;rounded=0;orthogonalLoop=1;jettySize=auto;html=1;exitX=0.5;exitY=1;exitDx=0;exitDy=0;entryX=0.5;entryY=0;entryDx=0;entryDy=0;" edge="1" parent="NBueSBJ00ZiVmKcQPDRC-1" source="NBueSBJ00ZiVmKcQPDRC-22" target="NBueSBJ00ZiVmKcQPDRC-23">
          <mxGeometry relative="1" as="geometry" />
        </mxCell>
        <mxCell id="NBueSBJ00ZiVmKcQPDRC-22" value="start and finish tiles" style="rounded=1;whiteSpace=wrap;html=1;" vertex="1" parent="NBueSBJ00ZiVmKcQPDRC-1">
          <mxGeometry x="330" y="60" width="120" height="60" as="geometry" />
        </mxCell>
        <mxCell id="NBueSBJ00ZiVmKcQPDRC-35" style="edgeStyle=orthogonalEdgeStyle;rounded=0;orthogonalLoop=1;jettySize=auto;html=1;entryX=0.5;entryY=0;entryDx=0;entryDy=0;" edge="1" parent="NBueSBJ00ZiVmKcQPDRC-1" source="NBueSBJ00ZiVmKcQPDRC-23" target="NBueSBJ00ZiVmKcQPDRC-21">
          <mxGeometry relative="1" as="geometry" />
        </mxCell>
        <mxCell id="NBueSBJ00ZiVmKcQPDRC-23" value="solving maze" style="rounded=1;whiteSpace=wrap;html=1;" vertex="1" parent="NBueSBJ00ZiVmKcQPDRC-1">
          <mxGeometry x="330" y="140" width="120" height="60" as="geometry" />
        </mxCell>
        <mxCell id="NBueSBJ00ZiVmKcQPDRC-24" value="back pressed" style="rounded=1;whiteSpace=wrap;html=1;" vertex="1" parent="NBueSBJ00ZiVmKcQPDRC-1">
          <mxGeometry x="510" y="280" width="120" height="60" as="geometry" />
        </mxCell>
        <mxCell id="NBueSBJ00ZiVmKcQPDRC-30" value="" style="endArrow=classic;startArrow=classic;html=1;rounded=0;entryX=0;entryY=0.5;entryDx=0;entryDy=0;" edge="1" parent="NBueSBJ00ZiVmKcQPDRC-1" source="NBueSBJ00ZiVmKcQPDRC-18" target="NBueSBJ00ZiVmKcQPDRC-22">
          <mxGeometry width="50" height="50" relative="1" as="geometry">
            <mxPoint x="200" y="70" as="sourcePoint" />
            <mxPoint x="270" y="70" as="targetPoint" />
          </mxGeometry>
        </mxCell>
        <mxCell id="NBueSBJ00ZiVmKcQPDRC-38" value="maze generation" style="swimlane;whiteSpace=wrap;html=1;" vertex="1" parent="NBueSBJ00ZiVmKcQPDRC-1">
          <mxGeometry x="20" y="30" width="160" height="260" as="geometry" />
        </mxCell>
        <mxCell id="NBueSBJ00ZiVmKcQPDRC-41" value="maze solving" style="swimlane;whiteSpace=wrap;html=1;" vertex="1" parent="NBueSBJ00ZiVmKcQPDRC-1">
          <mxGeometry x="310" y="30" width="160" height="190" as="geometry" />
        </mxCell>
        <mxCell id="NBueSBJ00ZiVmKcQPDRC-9" value="Two Player" style="swimlane;html=1;startSize=20;horizontal=1;containerType=tree;glass=0;" vertex="1" parent="1">
          <mxGeometry x="50" y="810" width="710" height="430" as="geometry" />
        </mxCell>
        <mxCell id="NBueSBJ00ZiVmKcQPDRC-54" value="maze generation" style="swimlane;whiteSpace=wrap;html=1;startSize=23;" vertex="1" parent="NBueSBJ00ZiVmKcQPDRC-9">
          <mxGeometry x="20" y="30" width="160" height="260" as="geometry" />
        </mxCell>
        <mxCell id="NBueSBJ00ZiVmKcQPDRC-49" value="draw" style="rounded=1;whiteSpace=wrap;html=1;" vertex="1" parent="NBueSBJ00ZiVmKcQPDRC-54">
          <mxGeometry x="20" y="30" width="120" height="60" as="geometry" />
        </mxCell>
        <mxCell id="NBueSBJ00ZiVmKcQPDRC-50" value="check neighbours" style="rounded=1;whiteSpace=wrap;html=1;" vertex="1" parent="NBueSBJ00ZiVmKcQPDRC-54">
          <mxGeometry x="20" y="110" width="120" height="60" as="geometry" />
        </mxCell>
        <mxCell id="NBueSBJ00ZiVmKcQPDRC-52" style="edgeStyle=orthogonalEdgeStyle;rounded=0;orthogonalLoop=1;jettySize=auto;html=1;exitX=0.5;exitY=1;exitDx=0;exitDy=0;entryX=0.5;entryY=0;entryDx=0;entryDy=0;" edge="1" parent="NBueSBJ00ZiVmKcQPDRC-54" source="NBueSBJ00ZiVmKcQPDRC-49" target="NBueSBJ00ZiVmKcQPDRC-50">
          <mxGeometry relative="1" as="geometry" />
        </mxCell>
        <mxCell id="NBueSBJ00ZiVmKcQPDRC-89" style="edgeStyle=orthogonalEdgeStyle;rounded=0;orthogonalLoop=1;jettySize=auto;html=1;exitX=1;exitY=0.5;exitDx=0;exitDy=0;" edge="1" parent="NBueSBJ00ZiVmKcQPDRC-54" source="NBueSBJ00ZiVmKcQPDRC-51">
          <mxGeometry relative="1" as="geometry">
            <mxPoint x="240" y="330" as="targetPoint" />
          </mxGeometry>
        </mxCell>
        <mxCell id="NBueSBJ00ZiVmKcQPDRC-51" value="remover walls" style="rounded=1;whiteSpace=wrap;html=1;" vertex="1" parent="NBueSBJ00ZiVmKcQPDRC-54">
          <mxGeometry x="20" y="190" width="120" height="60" as="geometry" />
        </mxCell>
        <mxCell id="NBueSBJ00ZiVmKcQPDRC-53" style="edgeStyle=orthogonalEdgeStyle;rounded=0;orthogonalLoop=1;jettySize=auto;html=1;exitX=0.5;exitY=1;exitDx=0;exitDy=0;entryX=0.5;entryY=0;entryDx=0;entryDy=0;" edge="1" parent="NBueSBJ00ZiVmKcQPDRC-54" source="NBueSBJ00ZiVmKcQPDRC-50" target="NBueSBJ00ZiVmKcQPDRC-51">
          <mxGeometry relative="1" as="geometry" />
        </mxCell>
        <mxCell id="NBueSBJ00ZiVmKcQPDRC-55" value="maze solving" style="swimlane;whiteSpace=wrap;html=1;" vertex="1" parent="NBueSBJ00ZiVmKcQPDRC-9">
          <mxGeometry x="310" y="30" width="160" height="200" as="geometry" />
        </mxCell>
        <mxCell id="NBueSBJ00ZiVmKcQPDRC-60" style="edgeStyle=orthogonalEdgeStyle;rounded=0;orthogonalLoop=1;jettySize=auto;html=1;exitX=0.5;exitY=1;exitDx=0;exitDy=0;entryX=0.5;entryY=0;entryDx=0;entryDy=0;" edge="1" parent="NBueSBJ00ZiVmKcQPDRC-55" source="NBueSBJ00ZiVmKcQPDRC-56" target="NBueSBJ00ZiVmKcQPDRC-57">
          <mxGeometry relative="1" as="geometry" />
        </mxCell>
        <mxCell id="NBueSBJ00ZiVmKcQPDRC-56" value="start and finish tiles" style="rounded=1;whiteSpace=wrap;html=1;" vertex="1" parent="NBueSBJ00ZiVmKcQPDRC-55">
          <mxGeometry x="20" y="30" width="120" height="60" as="geometry" />
        </mxCell>
        <mxCell id="NBueSBJ00ZiVmKcQPDRC-57" value="solving maze" style="rounded=1;whiteSpace=wrap;html=1;" vertex="1" parent="NBueSBJ00ZiVmKcQPDRC-55">
          <mxGeometry x="20" y="110" width="120" height="60" as="geometry" />
        </mxCell>
        <mxCell id="NBueSBJ00ZiVmKcQPDRC-88" style="edgeStyle=orthogonalEdgeStyle;rounded=0;orthogonalLoop=1;jettySize=auto;html=1;entryX=0.5;entryY=0;entryDx=0;entryDy=0;" edge="1" parent="NBueSBJ00ZiVmKcQPDRC-9" source="NBueSBJ00ZiVmKcQPDRC-58" target="NBueSBJ00ZiVmKcQPDRC-59">
          <mxGeometry relative="1" as="geometry" />
        </mxCell>
        <mxCell id="NBueSBJ00ZiVmKcQPDRC-58" value="score system&amp;nbsp;" style="rounded=1;whiteSpace=wrap;html=1;" vertex="1" parent="NBueSBJ00ZiVmKcQPDRC-9">
          <mxGeometry x="330" y="270" width="120" height="60" as="geometry" />
        </mxCell>
        <mxCell id="NBueSBJ00ZiVmKcQPDRC-92" style="edgeStyle=orthogonalEdgeStyle;rounded=0;orthogonalLoop=1;jettySize=auto;html=1;exitX=1;exitY=0.5;exitDx=0;exitDy=0;" edge="1" parent="NBueSBJ00ZiVmKcQPDRC-9" source="NBueSBJ00ZiVmKcQPDRC-59" target="NBueSBJ00ZiVmKcQPDRC-82">
          <mxGeometry relative="1" as="geometry" />
        </mxCell>
        <mxCell id="NBueSBJ00ZiVmKcQPDRC-59" value="run loop" style="rounded=1;whiteSpace=wrap;html=1;" vertex="1" parent="NBueSBJ00ZiVmKcQPDRC-9">
          <mxGeometry x="200" y="359" width="120" height="60" as="geometry" />
        </mxCell>
        <mxCell id="NBueSBJ00ZiVmKcQPDRC-61" style="edgeStyle=orthogonalEdgeStyle;rounded=0;orthogonalLoop=1;jettySize=auto;html=1;exitX=0.5;exitY=1;exitDx=0;exitDy=0;entryX=0.5;entryY=0;entryDx=0;entryDy=0;" edge="1" parent="NBueSBJ00ZiVmKcQPDRC-9" source="NBueSBJ00ZiVmKcQPDRC-57" target="NBueSBJ00ZiVmKcQPDRC-58">
          <mxGeometry relative="1" as="geometry" />
        </mxCell>
        <mxCell id="NBueSBJ00ZiVmKcQPDRC-68" value="" style="endArrow=classic;startArrow=classic;html=1;rounded=0;exitX=1;exitY=0.5;exitDx=0;exitDy=0;entryX=0;entryY=0.5;entryDx=0;entryDy=0;" edge="1" parent="NBueSBJ00ZiVmKcQPDRC-9" source="NBueSBJ00ZiVmKcQPDRC-49" target="NBueSBJ00ZiVmKcQPDRC-56">
          <mxGeometry width="50" height="50" relative="1" as="geometry">
            <mxPoint x="220" y="-90" as="sourcePoint" />
            <mxPoint x="270" y="-140" as="targetPoint" />
          </mxGeometry>
        </mxCell>
        <mxCell id="NBueSBJ00ZiVmKcQPDRC-82" value="back pressed" style="rounded=1;whiteSpace=wrap;html=1;" vertex="1" parent="NBueSBJ00ZiVmKcQPDRC-9">
          <mxGeometry x="510" y="359" width="120" height="60" as="geometry" />
        </mxCell>
        <mxCell id="NBueSBJ00ZiVmKcQPDRC-69" value="" style="endArrow=none;html=1;rounded=0;entryX=0;entryY=0.25;entryDx=0;entryDy=0;" edge="1" parent="1" target="NBueSBJ00ZiVmKcQPDRC-43">
          <mxGeometry width="50" height="50" relative="1" as="geometry">
            <mxPoint x="20" y="190" as="sourcePoint" />
            <mxPoint x="320" y="370" as="targetPoint" />
          </mxGeometry>
        </mxCell>
        <mxCell id="NBueSBJ00ZiVmKcQPDRC-70" value="" style="endArrow=none;html=1;rounded=0;" edge="1" parent="1">
          <mxGeometry width="50" height="50" relative="1" as="geometry">
            <mxPoint x="20" y="190" as="sourcePoint" />
            <mxPoint x="20" y="790" as="targetPoint" />
          </mxGeometry>
        </mxCell>
        <mxCell id="NBueSBJ00ZiVmKcQPDRC-71" value="" style="endArrow=none;html=1;rounded=0;" edge="1" parent="1">
          <mxGeometry width="50" height="50" relative="1" as="geometry">
            <mxPoint x="20" y="790" as="sourcePoint" />
            <mxPoint x="290" y="790" as="targetPoint" />
          </mxGeometry>
        </mxCell>
        <mxCell id="NBueSBJ00ZiVmKcQPDRC-72" value="" style="endArrow=none;html=1;rounded=0;entryX=0;entryY=0.75;entryDx=0;entryDy=0;" edge="1" parent="1" target="NBueSBJ00ZiVmKcQPDRC-43">
          <mxGeometry width="50" height="50" relative="1" as="geometry">
            <mxPoint x="290" y="220" as="sourcePoint" />
            <mxPoint x="320" y="470" as="targetPoint" />
          </mxGeometry>
        </mxCell>
        <mxCell id="NBueSBJ00ZiVmKcQPDRC-73" value="" style="endArrow=none;html=1;rounded=0;" edge="1" parent="1">
          <mxGeometry width="50" height="50" relative="1" as="geometry">
            <mxPoint x="290" y="790" as="sourcePoint" />
            <mxPoint x="290" y="900" as="targetPoint" />
          </mxGeometry>
        </mxCell>
        <mxCell id="NBueSBJ00ZiVmKcQPDRC-76" value="" style="endArrow=none;html=1;rounded=0;exitX=0.5;exitY=0;exitDx=0;exitDy=0;" edge="1" parent="1" source="NBueSBJ00ZiVmKcQPDRC-24">
          <mxGeometry width="50" height="50" relative="1" as="geometry">
            <mxPoint x="270" y="520" as="sourcePoint" />
            <mxPoint x="620" y="200" as="targetPoint" />
          </mxGeometry>
        </mxCell>
        <mxCell id="NBueSBJ00ZiVmKcQPDRC-77" value="" style="endArrow=none;html=1;rounded=0;exitX=1;exitY=0.4;exitDx=0;exitDy=0;exitPerimeter=0;" edge="1" parent="1" source="NBueSBJ00ZiVmKcQPDRC-43">
          <mxGeometry width="50" height="50" relative="1" as="geometry">
            <mxPoint x="270" y="520" as="sourcePoint" />
            <mxPoint x="620" y="200" as="targetPoint" />
          </mxGeometry>
        </mxCell>
        <mxCell id="NBueSBJ00ZiVmKcQPDRC-78" value="" style="endArrow=classic;html=1;rounded=0;" edge="1" parent="1">
          <mxGeometry width="50" height="50" relative="1" as="geometry">
            <mxPoint x="620" y="540" as="sourcePoint" />
            <mxPoint x="620" y="440" as="targetPoint" />
          </mxGeometry>
        </mxCell>
        <mxCell id="NBueSBJ00ZiVmKcQPDRC-79" value="" style="endArrow=classic;html=1;rounded=0;" edge="1" parent="1">
          <mxGeometry width="50" height="50" relative="1" as="geometry">
            <mxPoint x="240" y="190" as="sourcePoint" />
            <mxPoint x="190" y="190" as="targetPoint" />
          </mxGeometry>
        </mxCell>
        <mxCell id="NBueSBJ00ZiVmKcQPDRC-80" value="" style="endArrow=none;html=1;rounded=0;" edge="1" parent="1">
          <mxGeometry width="50" height="50" relative="1" as="geometry">
            <mxPoint x="290" y="490" as="sourcePoint" />
            <mxPoint x="290" y="220" as="targetPoint" />
          </mxGeometry>
        </mxCell>
        <mxCell id="NBueSBJ00ZiVmKcQPDRC-81" value="" style="endArrow=classic;html=1;rounded=0;" edge="1" parent="1">
          <mxGeometry width="50" height="50" relative="1" as="geometry">
            <mxPoint x="290" y="250" as="sourcePoint" />
            <mxPoint x="290" y="290" as="targetPoint" />
          </mxGeometry>
        </mxCell>
        <mxCell id="NBueSBJ00ZiVmKcQPDRC-84" value="" style="endArrow=none;html=1;rounded=0;exitX=1;exitY=0.5;exitDx=0;exitDy=0;" edge="1" parent="1" source="NBueSBJ00ZiVmKcQPDRC-82">
          <mxGeometry width="50" height="50" relative="1" as="geometry">
            <mxPoint x="270" y="930" as="sourcePoint" />
            <mxPoint x="720" y="1199" as="targetPoint" />
          </mxGeometry>
        </mxCell>
        <mxCell id="NBueSBJ00ZiVmKcQPDRC-85" value="" style="endArrow=none;html=1;rounded=0;" edge="1" parent="1">
          <mxGeometry width="50" height="50" relative="1" as="geometry">
            <mxPoint x="720" y="1200" as="sourcePoint" />
            <mxPoint x="720" y="640" as="targetPoint" />
          </mxGeometry>
        </mxCell>
        <mxCell id="NBueSBJ00ZiVmKcQPDRC-86" value="" style="endArrow=classic;html=1;rounded=0;" edge="1" parent="1">
          <mxGeometry width="50" height="50" relative="1" as="geometry">
            <mxPoint x="720" y="640" as="sourcePoint" />
            <mxPoint x="620" y="640" as="targetPoint" />
          </mxGeometry>
        </mxCell>
        <mxCell id="NBueSBJ00ZiVmKcQPDRC-87" value="" style="endArrow=classic;html=1;rounded=0;" edge="1" parent="1">
          <mxGeometry width="50" height="50" relative="1" as="geometry">
            <mxPoint x="720" y="1020" as="sourcePoint" />
            <mxPoint x="720" y="980" as="targetPoint" />
          </mxGeometry>
        </mxCell>
      </root>
    </mxGraphModel>
  </diagram>
</mxfile>
